# AST/ASF file generated using VICON BodyLanguage
# -----------------------------------------------
:version 1.10
:name VICON
:units
  mass 1.0
  length 0.45
  angle deg
:documentation
   .ast/.asf automatically generated from VICON data using
   VICON BodyBuilder and BodyLanguage model FoxedUp or BRILLIANT.MOD
:root
   order TX TY TZ RX RY RZ
   axis XYZ
   position 0 0 0  
   orientation 0 0 0 
:bonedata
  begin
     id 1 
     name lhipjoint
     direction 0.535335 -0.74333 0.401095 
     length 2.04549 
     axis 0 0 0  XYZ
  end
  begin
     id 2 
     name lfemur
     direction 0.34202 -0.939693 0  
     length 6.95643  
     axis 0 0 20  XYZ
    dof rx ry rz
    limits (-160.0 20.0)
           (-70.0 70.0)
           (-60.0 70.0)
  end
  begin
     id 3 
     name ltibia
     direction 0.34192 -0.939729 0   
     length 5.55969   
     axis 0 0 20   XYZ
    dof rx
    limits (-10.0 170.0)
  end
  begin
     id 4 
     name lfoot
     direction 0.216943 -0.596046 0.773088   
     length 2.27918   
     axis -90 7.62852e-016 20   XYZ
    dof rx rz
    limits (-45.0 90.0)
           (-70.0 20.0)
  end
  begin
     id 5 
     name ltoes
     direction 1.53519e-011 -4.21748e-011 1   
     length 1.05562   
     axis -90 7.62852e-016 20   XYZ
    dof rx
    limits (-90.0 20.0)
  end
  begin
     id 6 
     name rhipjoint
     direction -0.576368 -0.719173 0.38806   
     length 2.1142  
     axis 0 0 0  XYZ 
  end
  begin
     id 7 
     name rfemur
     direction -0.34202 -0.939693 0   
     length 7.07928   
     axis 0 0 -20   XYZ
    dof rx ry rz
    limits (-160.0 20.0)
           (-70.0 70.0)
           (-70.0 60.0)
  end
  begin
     id 8 
     name rtibia
     direction -0.34202 -0.939693 0   
     length 5.79974   
     axis 0 0 -20   XYZ
    dof rx
    limits (-10.0 170.0)
 end
 begin
     id 9 
     name rfoot
     direction -0.189288 -0.520065 0.832888   
     length 2.42173  
     axis -90 -7.62852e-016 -20   XYZ
    dof rx rz
    limits (-45.0 90.0)
           (-20.0 70.0)
  end
  begin
     id 10 
     name rtoes
     direction -1.53574e-011 -4.21658e-011 1   
     length 1.14469   
     axis -90 -7.62852e-016 -20   XYZ
    dof rx
    limits (-90.0 20.0)
  end
  begin
     id 11 
     name lowerback
     direction -0.00135702 0.993803 0.111144   
     length 1.91308   
     axis 0 0 0   XYZ
    dof rx ry rz
    limits (-20.0 45.0)
           (-30.0 30.0)
           (-30.0 30.0)
  end
  begin
     id 12 
     name upperback
     direction -0.0056745 0.999813 0.0184631   
     length 1.9212   
     axis 0 0 0   XYZ
    dof rx ry rz
    limits (-20.0 45.0)
           (-30.0 30.0)
           (-30.0 30.0)
  end
  begin
     id 13 
     name thorax
     direction -0.00733434 0.999426 -0.0330788   
     length 1.94196   
     axis 0 0 0   XYZ
    dof rx ry rz
    limits (-20.0 45.0)
           (-30.0 30.0)
           (-30.0 30.0)
  end
  begin
     id 14 
     name lowerneck
     direction 0.0563074 0.996944 -0.0541571   
     length 2.34257   
     axis 0 0 0   XYZ
    dof rx ry rz
    limits (-20.0 45.0)
           (-30.0 30.0)
           (-30.0 30.0)
  end
  begin
     id 15 
     name upperneck
     direction -0.0544519 0.976166 -0.210085   
     length 2.32506   
     axis 0 0 0   XYZ
    dof rx ry rz
    limits (-20.0 45.0)
           (-30.0 30.0)
           (-30.0 30.0)
  end
  begin
     id 16
     name head
     direction -0.0226035 0.997615 -0.0652205  
     length 2.3648  
     axis 0 0 0   XYZ
    dof rx ry rz
    limits (-20.0 45.0)
           (-30.0 30.0)
           (-30.0 30.0)
  end
  begin
     id 17 
     name lclavicle
     direction 0.92109 0.381297 -0.0787716  
     length 4.0487  
     axis 0 0 0   XYZ
    dof ry rz
    limits (-20.0 10.0)
           (0.0 20.0)
  end
  begin
     id 18 
     name lhumerus
     direction 1 -4.48986e-011 3.56724e-027   
     length 4.94991   
     axis 180 -30 -90   XYZ
    dof rx ry rz
    limits (-60.0 90.0)
           (-90.0 90.0)
           (-90.0 90.0)
  end
  begin
     id 19
     name lradius
     direction 1 -4.48981e-011 8.62147e-027   
     length 2.7606   
     axis 180 -30 -90   XYZ
    dof rx
    limits (-10.0 170.0)
  end
  begin
     id 20
     name lwrist
     direction 1 -4.48989e-011 1.59799e-026   
     length 1.3803   
     axis -1.17785e-014 90 90   XYZ
    dof ry
    limits (-180.0 0.0)
 end
  begin
     id 21 
     name lhand
     direction 1 -4.48896e-011 3.19599e-026   
     length 0.843936   
     axis -2.03931e-014 90 90   XYZ
    dof rx rz
    limits (-90.0 90.0)
           (-45.0 45.0)
  end
  begin
     id 22 
     name lfingers
     direction 1 -4.48887e-011 6.39197e-026   
     length 0.680403   
     axis -4.07862e-014 90 90   XYZ
    dof rx
    limits (0.0 90.0)
  end
  begin
     id 23
     name lthumb
     direction 0.707107 -6.348e-011 0.707107   
     length 0.976926   
     axis -90 45 2.85299e-015   XYZ
    dof rx rz
    limits (-45.0 45.0)
           (-45.0 45.0)
  end
  begin
     id 24 
     name rclavicle
     direction -0.951104 0.307692 -0.026953   
     length 4.21801  
     axis 0 0 0   XYZ 
    dof ry rz
    limits (-10.0 20.0)
           (-20.0 0.0)
  end
  begin
     id 25 
     name rhumerus
     direction -1 -4.4896e-011 -1.8171e-018  
     length 4.32982   
     axis 180 30 90   XYZ
    dof rx ry rz
    limits (-90.0 60.0)
           (-90.0 90.0)
           (-90.0 90.0)
  end
  begin
     id 26 
     name rradius
     direction -1 -4.48959e-011 8.25165e-027   
     length 3.20057   
     axis 180 30 90   XYZ
    dof rx
    limits (-10.0 170.0)
  end
  begin
     id 27 
     name rwrist
     direction -1 -4.48997e-011 1.59799e-026   
     length 1.60029   
     axis -1.17785e-014 -90 -90   XYZ
    dof ry
    limits (-180.0 0.0)
  end
  begin
     id 28
     name rhand
     direction -1 -4.49023e-011 3.19599e-026   
     length 0.960433   
     axis -2.03931e-014 -90 -90   XYZ
    dof rx rz
    limits (-90.0 90.0)
           (-45.0 45.0)
  end
  begin
     id 29
     name rfingers
     direction -1 -4.48802e-011 6.39197e-026   
     length 0.774326   
     axis -4.07862e-014 -90 -90   XYZ
    dof rx
    limits (0.0 90.0)
  end
  begin
     id 30
     name rthumb
     direction -0.707107 -6.34876e-011 0.707107   
     length 1.11178   
     axis -90 -45 -2.85299e-015   XYZ
    dof rx rz
    limits (-45.0 45.0)
           (-45.0 45.0)
  end
:hierarchy
  begin
    root lhipjoint rhipjoint lowerback
    lhipjoint lfemur
    lfemur ltibia
    ltibia lfoot
    lfoot ltoes
    rhipjoint rfemur
    rfemur rtibia
    rtibia rfoot
    rfoot rtoes
    lowerback upperback
    upperback thorax
    thorax lowerneck lclavicle rclavicle
    lowerneck upperneck
    upperneck head
    lclavicle lhumerus
    lhumerus lradius
    lradius lwrist
    lwrist lhand lthumb
    lhand lfingers
    rclavicle rhumerus
    rhumerus rradius
    rradius rwrist
    rwrist rhand rthumb
    rhand rfingers
end

#!OML:ASF C:\KaitlinTest1\Natural Motions\Nikki\Session 2\Nikki.ASF
:FULLY-SPECIFIED
:DEGREES
329
root -18.9216 16.6348 5.05746 -154.957 85.6964 -164.852
lowerback -13.4433 -1.64379 -0.0411299
upperback -3.91257 -1.9683 -0.543775
thorax 3.39736 -0.900788 -0.855971
lowerneck -2.04318 1.58961 8.48492
upperneck 27.3189 3.79725 -5.50836
head 9.11933 2.52049 -2.9835
rclavicle 3.57812e-015 -1.07344e-014
rhumerus -42.2613 -22.3351 -79.2728
rradius 18.4237
rwrist 29.0541
rhand -36.0043 3.25473
rfingers 7.12502
rthumb -9.114 -26.5283
lclavicle 3.57812e-015 -1.07344e-014
lhumerus -42.1347 16.243 80.2828
lradius 23.9725
lwrist -39.96
lhand -32.7348 3.59574
lfingers 7.12502
lthumb -5.95821 33.492
rfemur -7.89332 -16.8098 21.065
rtibia 11.2324
rfoot -10.6136 11.9328
rtoes 5.00937e-014
lfemur -10.1094 11.9034 -17.9114
ltibia 9.76328
lfoot -1.95677 -16.7186
ltoes 2.38542e-014
330
root -18.922 16.6348 5.05746 -154.77 85.6783 -164.672
lowerback -13.4241 -1.65249 -0.0252893
upperback -3.93341 -1.98182 -0.531894
thorax 3.36484 -0.907292 -0.853688
lowerneck -1.99216 1.59233 8.48177
upperneck 27.2934 3.80255 -5.49826
head 9.10109 2.5243 -2.97915
rclavicle 4.94477e-015 -4.77083e-015
rhumerus -42.2977 -22.1902 -79.3417
rradius 18.4818
rwrist 28.9443
rhand -36.0128 3.18926
rfingers 7.12502
rthumb -9.12214 -26.5935
lclavicle 4.94477e-015 -4.77083e-015
lhumerus -42.0169 15.3055 81.117
lradius 24.0318
lwrist -37.3926
lhand -33.5782 3.87052
lfingers 7.12502
lthumb -6.77237 33.7422
rfemur -7.89635 -16.793 21.0902
rtibia 11.2203
rfoot -10.5984 11.9113
rtoes 2.38542e-015
lfemur -10.1324 11.8939 -17.8888
ltibia 9.77221
lfoot -1.95225 -16.7107
ltoes 1.11319e-014
331
root -18.9217 16.6344 5.05747 -155.062 85.6867 -164.986
lowerback -13.401 -1.66337 -0.0579335
upperback -3.97474 -1.99059 -0.525439
thorax 3.3103 -0.911208 -0.828484
lowerneck -1.93775 1.58259 8.46133
upperneck 27.3006 3.79902 -5.49792
head 9.09268 2.52288 -2.97631
rclavicle -1.8313e-014 -3.18055e-015
rhumerus -42.3521 -22.0961 -79.353
rradius 18.5083
rwrist 28.8442
rhand -36.0008 3.1636
rfingers 7.12502
rthumb -9.11061 -26.6196
lclavicle -1.8313e-014 -3.18055e-015
lhumerus -42.2503 16.2943 80.2264
lradius 23.9608
lwrist -40.1829
lhand -32.65 3.68036
lfingers 7.12502
lthumb -5.87631 33.5789
rfemur -7.91491 -16.7998 21.0707
rtibia 11.2171
rfoot -10.603 11.9074
rtoes -8.98507e-014
lfemur -10.1487 11.8916 -17.9211
ltibia 9.76837
lfoot -1.94768 -16.7179
ltoes -9.54166e-015
332
root -18.9202 16.6346 5.05663 -154.738 85.6872 -164.639
lowerback -13.385 -1.65489 -0.0174119
upperback -3.96734 -1.98552 -0.523692
thorax 3.30808 -0.908916 -0.848338
lowerneck -1.92146 1.56943 8.45166
upperneck 27.2928 3.78189 -5.49597
head 9.0852 2.51426 -2.97551
rclavicle 3.27746e-014 1.90833e-014
rhumerus -42.3504 -22.2384 -79.2651
rradius 18.424
rwrist 29.0079
rhand -35.9956 3.20237
rfingers 7.12502
rthumb -9.10558 -26.5811
lclavicle 3.27746e-014 1.90833e-014
lhumerus -42.2456 16.251 80.2714
lradius 23.9518
lwrist -39.9499
lhand -32.741 3.56761
lfingers 7.12502
lthumb -5.96416 33.4637
rfemur -7.88714 -16.8547 21.0862
rtibia 11.213
rfoot -10.6153 11.9787
rtoes 1.27222e-014
lfemur -10.1229 11.9028 -17.8909
ltibia 9.77894
lfoot -1.94548 -16.7321
ltoes 1.11319e-014
